<?xml version="1.0" standalone="no"?>
<!DOCTYPE svg PUBLIC "-//W3C//DTD SVG 20010904//EN"
 "http://www.w3.org/TR/2001/REC-SVG-20010904/DTD/svg10.dtd">
<svg version="1.0" xmlns="http://www.w3.org/2000/svg"
 width="431.000000pt" height="431.000000pt" viewBox="0 0 431.000000 431.000000"
 preserveAspectRatio="xMidYMid meet">

<g transform="translate(0.000000,431.000000) scale(0.100000,-0.100000)"
fill="#000000" stroke="none">
<path d="M2827 3420 c-47 -12 -109 -44 -126 -64 -7 -8 -11 -32 -9 -52 l3 -37
-186 -96 c-184 -95 -266 -124 -349 -124 -19 0 -176 48 -348 107 -173 58 -324
106 -338 106 l-24 0 0 -214 0 -214 -47 -16 c-27 -8 -90 -20 -142 -25 -115 -11
-143 -28 -152 -92 -3 -24 -3 -53 2 -64 4 -11 10 -32 13 -47 8 -37 37 -50 108
-51 32 0 55 -4 51 -8 -4 -4 -75 -43 -158 -87 -82 -44 -202 -112 -265 -151 -93
-58 -503 -271 -522 -271 -3 0 -10 17 -16 38 -30 96 -84 132 -150 98 -42 -22
-52 -63 -52 -224 0 -148 10 -187 60 -222 51 -37 135 -28 421 44 140 35 308 83
374 105 284 98 546 181 572 181 37 0 574 -251 572 -268 0 -9 -85 -70 -279
-201 -139 -93 -307 -215 -383 -278 -16 -13 -32 -23 -35 -23 -4 0 -18 25 -30
54 -31 72 -54 91 -107 91 -81 0 -105 -50 -105 -219 0 -122 15 -238 37 -279 18
-35 83 -67 138 -67 57 0 107 15 210 65 116 55 200 94 415 193 204 93 635 299
665 317 23 14 253 136 335 177 30 15 56 23 58 19 2 -5 -13 -49 -33 -97 -63
-157 -134 -349 -141 -381 -10 -49 2 -82 33 -89 15 -4 38 -13 51 -20 14 -7 30
-10 37 -8 6 3 18 -2 25 -11 19 -23 58 -18 84 10 33 35 91 156 222 460 l111
260 49 29 c77 46 204 125 264 165 30 20 102 83 161 141 119 117 160 182 210
326 29 86 30 94 26 229 -3 115 -8 153 -29 217 -75 228 -304 417 -603 498 -54
15 -128 24 -230 30 -104 5 -164 13 -195 25 -52 20 -197 29 -253 15z m60 -89
c-54 -58 -67 -103 -42 -150 16 -32 16 -32 -4 -22 -36 20 -101 122 -101 160 0
19 109 57 169 60 22 1 20 -3 -22 -48z m603 -31 c174 -45 326 -134 444 -261 77
-83 118 -162 140 -271 38 -185 8 -358 -89 -513 -33 -53 -155 -176 -240 -243
-60 -48 -257 -173 -262 -168 -2 2 21 54 51 115 61 120 68 151 36 151 -16 0
-39 -38 -114 -187 -51 -104 -132 -282 -180 -398 -103 -247 -205 -458 -225
-464 -10 -3 -12 1 -6 15 4 11 10 31 13 46 3 23 1 28 -17 28 -16 0 -26 -10 -37
-35 -16 -39 -40 -50 -28 -12 4 12 8 33 8 47 1 39 -35 33 -57 -10 -18 -35 -18
-35 -12 -5 7 33 35 107 138 365 38 96 78 198 87 225 131 365 130 364 107 383
-20 17 -30 3 -61 -88 -15 -47 -46 -136 -69 -199 l-41 -114 -80 -38 c-45 -21
-121 -61 -171 -89 -194 -108 -644 -325 -1100 -530 -77 -35 -147 -69 -155 -75
-33 -27 -157 -68 -206 -69 -95 -2 -113 23 -129 174 -24 228 14 343 86 263 25
-28 69 -145 69 -183 0 -10 7 -23 15 -30 25 -21 46 5 40 49 -5 34 -2 38 52 81
97 76 239 178 382 273 75 50 175 121 223 157 48 36 105 78 128 93 22 16 40 34
40 42 0 23 -31 26 -64 6 l-32 -20 -94 48 c-52 27 -191 93 -309 146 l-213 98
-57 -17 c-95 -28 -389 -123 -541 -175 -162 -56 -554 -159 -642 -168 -125 -13
-148 17 -148 194 0 67 4 133 10 148 23 60 70 35 95 -50 8 -29 15 -64 15 -77 0
-49 47 -66 56 -20 5 25 26 38 197 122 106 52 262 137 347 188 85 52 200 117
254 144 54 27 115 60 135 72 20 13 67 42 104 66 37 23 69 41 71 39 2 -2 7 -37
12 -78 l9 -75 50 -29 c117 -70 450 -242 831 -430 l181 -89 114 47 c144 59 263
118 403 200 139 81 196 132 196 172 0 35 23 22 -335 179 -143 63 -281 124
-306 135 -46 21 -46 21 -53 82 -3 33 -6 87 -6 121 0 34 -4 66 -8 72 -9 15 -88
54 -179 89 -40 16 -73 31 -73 34 0 3 97 54 215 113 l214 107 33 -44 c38 -49
103 -93 198 -130 36 -14 75 -31 86 -36 13 -7 39 -8 62 -4 30 5 47 2 67 -11 23
-15 28 -15 41 -2 14 13 12 18 -12 47 -34 41 -25 49 27 25 l41 -18 20 24 c17
21 19 33 13 80 -8 62 -33 128 -58 149 -10 7 -17 18 -17 24 0 16 174 1 270 -23z
m-264 -87 c8 -18 14 -46 14 -62 0 -28 -2 -29 -34 -24 -53 8 -85 -3 -92 -33 -6
-25 -9 -26 -58 -21 -28 3 -67 12 -86 21 l-35 16 37 -5 c100 -15 207 64 208
152 1 27 1 27 16 8 9 -11 22 -34 30 -52z m-1573 -52 c83 -27 256 -86 382 -129
374 -130 452 -163 465 -195 11 -29 13 -897 2 -897 -28 0 -948 474 -978 504
-18 18 -46 766 -29 766 3 0 74 -22 158 -49z m-204 -532 c-44 -27 -290 -55
-264 -30 6 5 24 11 40 13 22 2 30 8 30 23 0 17 -8 21 -50 24 l-50 4 40 12 c34
11 40 16 38 39 -2 24 1 26 40 27 23 0 71 8 107 17 l65 17 9 -69 c6 -54 5 -70
-5 -77z m1505 -230 c127 -56 235 -105 240 -110 21 -19 -81 -92 -294 -207 -65
-35 -322 -152 -335 -152 -3 0 -5 144 -5 320 l0 319 81 -35 c45 -19 186 -80
313 -135z"/>
<path d="M3422 3099 c-94 -18 -122 -49 -121 -134 0 -75 18 -119 50 -123 16 -2
32 -14 43 -33 38 -65 158 -131 281 -154 135 -26 225 -17 272 27 32 30 32 113
-1 183 -29 63 -105 148 -163 181 -97 58 -235 78 -361 53z m143 -67 c-67 -37
-95 -80 -95 -148 0 -46 5 -59 33 -91 l32 -37 -32 22 c-66 47 -115 126 -129
209 -6 40 -5 41 27 51 49 15 76 19 149 20 l65 2 -50 -28z m341 -207 c8 -23 14
-57 12 -76 -2 -29 -9 -36 -38 -47 -40 -14 -144 -9 -233 12 -82 19 -88 32 -13
28 46 -3 74 1 97 13 69 35 109 88 109 146 l0 33 25 -34 c13 -18 32 -52 41 -75z"/>
</g>
</svg>
